<svg viewBox="0 0 680 330" xmlns="http://www.w3.org/2000/svg">
<style>
text{font-family:'Segoe UI',Helvetica,Arial,sans-serif;}
.th{font-weight:600;font-size:14px;fill:#1f2733;}
.ts{font-size:12px;fill:#5a6472;}
.t{font-size:13px;fill:#1f2733;}
.lbl{font-size:11px;fill:#8a93a0;font-weight:600;}
.arr{stroke:#5a6472;stroke-width:1.6;fill:none;}
rect{fill:#ffffff;}
.c-purple rect{fill:#f2ecfa;stroke:#6b4ea0;stroke-width:1.2;}
.c-teal rect{fill:#e6f5f3;stroke:#1f8a86;stroke-width:1.2;}
.c-coral rect{fill:#fbece9;stroke:#c75c54;stroke-width:1.2;}
.c-amber rect{fill:#fbf2dd;stroke:#b07d12;stroke-width:1.2;}
.c-blue rect{fill:#e9f1fb;stroke:#2f6fb0;stroke-width:1.2;}
.c-gray rect{fill:#eef0f3;stroke:#5a6472;stroke-width:1.2;}
.c-purple .th{fill:#3d2d63;}.c-teal .th{fill:#0f5b58;}.c-coral .th{fill:#8f352f;}.c-amber .th{fill:#7a5408;}.c-blue .th{fill:#1f4e80;}.c-gray .th{fill:#2b323d;}
</style>
<defs><marker id="arrow" viewBox="0 0 10 10" refX="8" refY="5" markerWidth="6" markerHeight="6" orient="auto-start-reverse"><path d="M2 1L8 5L2 9" fill="none" stroke="#5a6472" stroke-width="1.5" stroke-linecap="round" stroke-linejoin="round"/></marker></defs>
<g class="c-purple"><rect x="190" y="40" width="300" height="54" rx="8"/><text class="th" x="340" y="60" text-anchor="middle">Tool manifest</text><text class="ts" x="340" y="78" text-anchor="middle">input_schema = JSON Schema</text></g>
<line x1="320" y1="94" x2="150" y2="156" class="arr" marker-end="url(#arrow)"/>
<line x1="340" y1="94" x2="340" y2="156" class="arr" marker-end="url(#arrow)"/>
<line x1="360" y1="94" x2="530" y2="156" class="arr" marker-end="url(#arrow)"/>
<g class="c-blue"><rect x="53" y="160" width="175" height="56" rx="8"/><text class="th" x="140" y="181" text-anchor="middle">SDK</text><text class="ts" x="140" y="199" text-anchor="middle">Typed methods</text></g>
<g class="c-blue"><rect x="253" y="160" width="175" height="56" rx="8"/><text class="th" x="340" y="181" text-anchor="middle">Web UI</text><text class="ts" x="340" y="199" text-anchor="middle">Auto-generated forms</text></g>
<g class="c-blue"><rect x="453" y="160" width="175" height="56" rx="8"/><text class="th" x="540" y="181" text-anchor="middle">Chatbot</text><text class="ts" x="540" y="199" text-anchor="middle">Schemas as functions</text></g>
<line x1="140" y1="216" x2="140" y2="250" class="arr" marker-end="url(#arrow)"/>
<line x1="340" y1="216" x2="340" y2="250" class="arr" marker-end="url(#arrow)"/>
<line x1="540" y1="216" x2="540" y2="250" class="arr" marker-end="url(#arrow)"/>
<g class="c-gray"><rect x="53" y="250" width="175" height="44" rx="8"/><text class="t" x="140" y="276" text-anchor="middle">Developers</text></g>
<g class="c-gray"><rect x="253" y="250" width="175" height="44" rx="8"/><text class="t" x="340" y="276" text-anchor="middle">Non-tech users</text></g>
<g class="c-gray"><rect x="453" y="250" width="175" height="44" rx="8"/><text class="t" x="540" y="276" text-anchor="middle">NL tool search</text></g>
</svg>
